<svg xmlns="http://www.w3.org/2000/svg"  viewBox="0 0 64 64" width="64px" height="64px"><path fill="#85cbf8" d="M5 40H25V60H5z"/><path fill="#fff8ee" d="M15 36L15 3 45 17 45 60 25.167 60 25 36z"/><path fill="#7bbeeb" d="M18 40H25V60H18z"/><path fill="#ace3ff" d="M5 40H12V60H5z"/><path fill="#7bbeeb" d="M59 60L45 60 45 21 59 26z"/><path fill="#85cbf8" d="M52 26H59V60H52z"/><path fill="#f283a5" d="M45 51H59V60H45z"/><path fill="#ed7899" d="M52 51H59V60H52z"/><path fill="#efd8be" d="M38 60L38 14 45 18 45 60 25.167 60"/><path fill="#8d6c9f" d="M26,61H4V39h22V61z M6,59h18V41H6V59z"/><path fill="#f9dd8f" d="M25,40H5c-1.105,0-2-0.895-2-2v0c0-1.105,0.895-2,2-2h20c1.105,0,2,0.895,2,2v0 C27,39.105,26.105,40,25,40z"/><path fill="#8d6c9f" d="M25,41H5c-1.654,0-3-1.346-3-3s1.346-3,3-3h20c1.654,0,3,1.346,3,3S26.654,41,25,41z M5,37 c-0.552,0-1,0.448-1,1s0.448,1,1,1h20c0.552,0,1-0.448,1-1s-0.448-1-1-1H5z"/><path fill="#f9dd8f" d="M44,22h15c1.105,0,2,0.895,2,2v0c0,1.105-0.895,2-2,2H45"/><path fill="#8d6c9f" d="M59,27H45v-2h14c0.552,0,1-0.448,1-1s-0.448-1-1-1H44v-2h15c1.654,0,3,1.346,3,3S60.654,27,59,27z"/><path fill="#8d6c9f" d="M60,61H44V25h16V61z M46,59h12V27H46V59z"/><path fill="#8d6c9f" d="M45 61H25.167v-2H44V18.618l-28-14V36h-2V3c0-.347.18-.668.475-.851s.662-.198.973-.044l30 15C45.786 17.275 46 17.621 46 18v42C46 60.553 45.553 61 45 61zM13 45h-2c-.553 0-1-.447-1-1s.447-1 1-1h2c.553 0 1 .447 1 1S13.553 45 13 45z"/><path fill="#8d6c9f" d="M19 45h-2c-.553 0-1-.447-1-1s.447-1 1-1h2c.553 0 1 .447 1 1S19.553 45 19 45zM13 50h-2c-.553 0-1-.447-1-1s.447-1 1-1h2c.553 0 1 .447 1 1S13.553 50 13 50zM19 50h-2c-.553 0-1-.447-1-1s.447-1 1-1h2c.553 0 1 .447 1 1S19.553 50 19 50zM13 55h-2c-.553 0-1-.447-1-1s.447-1 1-1h2c.553 0 1 .447 1 1S13.553 55 13 55zM19 55h-2c-.553 0-1-.447-1-1s.447-1 1-1h2c.553 0 1 .447 1 1S19.553 55 19 55zM53 27h-2c-.553 0-1-.447-1-1s.447-1 1-1h2c.553 0 1 .447 1 1S53.553 27 53 27zM23 17h-2c-.553 0-1-.447-1-1s.447-1 1-1h2c.553 0 1 .447 1 1S23.553 17 23 17zM23 22h-2c-.553 0-1-.447-1-1s.447-1 1-1h2c.553 0 1 .447 1 1S23.553 22 23 22zM23 27h-2c-.553 0-1-.447-1-1s.447-1 1-1h2c.553 0 1 .447 1 1S23.553 27 23 27zM39 37h-2c-.553 0-1-.447-1-1s.447-1 1-1h2c.553 0 1 .447 1 1S39.553 37 39 37zM39 32h-2c-.553 0-1-.447-1-1s.447-1 1-1h2c.553 0 1 .447 1 1S39.553 32 39 32zM39 27h-2c-.553 0-1-.447-1-1s.447-1 1-1h2c.553 0 1 .447 1 1S39.553 27 39 27zM23 32h-2c-.553 0-1-.447-1-1s.447-1 1-1h2c.553 0 1 .447 1 1S23.553 32 23 32zM31 22h-2c-.553 0-1-.447-1-1s.447-1 1-1h2c.553 0 1 .447 1 1S31.553 22 31 22zM31 27h-2c-.553 0-1-.447-1-1s.447-1 1-1h2c.553 0 1 .447 1 1S31.553 27 31 27zM31 32h-2c-.553 0-1-.447-1-1s.447-1 1-1h2c.553 0 1 .447 1 1S31.553 32 31 32zM53 32h-2c-.553 0-1-.447-1-1s.447-1 1-1h2c.553 0 1 .447 1 1S53.553 32 53 32zM53 37h-2c-.553 0-1-.447-1-1s.447-1 1-1h2c.553 0 1 .447 1 1S53.553 37 53 37zM53 42h-2c-.553 0-1-.447-1-1s.447-1 1-1h2c.553 0 1 .447 1 1S53.553 42 53 42zM53 47h-2c-.553 0-1-.447-1-1s.447-1 1-1h2c.553 0 1 .447 1 1S53.553 47 53 47zM59 52H46c-.553 0-1-.447-1-1s.447-1 1-1h13c.553 0 1 .447 1 1S59.553 52 59 52zM63 61H1c-.553 0-1-.447-1-1s.447-1 1-1h62c.553 0 1 .447 1 1S63.553 61 63 61z"/><path fill="#cda1a7" d="M33 52H37V60H33z"/><path fill="#8d6c9f" d="M38,61h-6V51h6V61z M34,59h2v-6h-2V59z"/><path fill="#72caaf" d="M35 40A6 6 0 1 0 35 52A6 6 0 1 0 35 40Z"/><path fill="#8d6c9f" d="M35,53c-3.859,0-7-3.141-7-7s3.141-7,7-7s7,3.141,7,7S38.859,53,35,53z M35,41 c-2.757,0-5,2.243-5,5s2.243,5,5,5s5-2.243,5-5S37.757,41,35,41z"/></svg>