<svg xmlns="http://www.w3.org/2000/svg"  viewBox="0 0 64 64" width="50px" height="50px"><path fill="#85cbf8" d="M45,44.048C45,54.515,36.515,63,26.048,63S7.096,54.515,7.096,44.048 C7.096,30.361,23.942,18.779,26.051,2C28.154,18.779,45,30.361,45,44.048z"/><path fill="#9fddff" d="M33.645,56.758c1.012,1.772,0.091,4.062-1.888,4.561C29.992,61.763,28.069,62,26,62 C8.97,62,5.955,48.988,7.849,39.231c0.385-1.983,2.574-3.044,4.398-2.175c0.191,0.091,0.38,0.181,0.568,0.27 c1.37,0.649,2.135,2.18,1.735,3.642c-0.29,1.059-0.45,2.089-0.45,3.083C14.1,50.64,19.46,56,26.05,56 c1.379,0,2.701-0.234,3.934-0.665c1.391-0.486,2.929,0.141,3.66,1.421L33.645,56.758z"/><path fill="#c5e4fa" d="M28.45,33.43C27.46,33.08,26.61,32.61,26,32c-0.07-0.07-0.15-0.14-0.23-0.2 c-1.12-0.97-2.87-1.43-4.73-1.69c-1.31-0.19-2.68-0.27-3.93-0.36c-2.07-0.16-3.8-0.33-4.34-1.02C12.35,28.21,12.63,27.37,14,26 c4-4,12-22,12-22c0,1.73,1.33,4.8,3.22,8.28c0.61,1.1,1.27,2.25,1.95,3.41c0.53,0.88,1.07,1.76,1.63,2.65 c0.83,1.34,1.68,2.66,2.51,3.93c0.59,0.9,1.17,1.78,1.73,2.6C39.8,28.98,42,32,42,32C43.69,33.69,33.91,35.39,28.45,33.43z"/><path fill="#8d6c9f" d="M26 54c-.553 0-1 .448-1 1v2c0 .552.447 1 1 1s1-.448 1-1v-2C27 54.448 26.553 54 26 54zM16 44c0-.552-.447-1-1-1h-2c-.553 0-1 .448-1 1s.447 1 1 1h2C15.553 45 16 44.552 16 44zM15.974 48.634l-1.732 1c-.479.276-.643.888-.366 1.366.186.321.521.5.867.5.17 0 .342-.043.499-.134l1.732-1c.479-.276.643-.888.366-1.366C17.062 48.521 16.449 48.357 15.974 48.634zM21 52.66c-.478-.276-1.09-.112-1.366.366l-1 1.732c-.276.478-.112 1.09.366 1.366.157.091.329.134.499.134.346 0 .682-.179.867-.5l1-1.732C21.643 53.548 21.479 52.937 21 52.66zM61 4H51c-.553 0-1 .448-1 1s.447 1 1 1h9v4h-5c-.553 0-1 .448-1 1s.447 1 1 1h5v4h-5c-.553 0-1 .448-1 1s.447 1 1 1h5v4h-9c-.553 0-1 .448-1 1s.447 1 1 1h9v4h-5c-.553 0-1 .448-1 1s.447 1 1 1h5v4h-5c-.553 0-1 .448-1 1s.447 1 1 1h5v4h-9c-.553 0-1 .448-1 1s.447 1 1 1h9v4h-5c-.553 0-1 .448-1 1s.447 1 1 1h5v4h-5c-.553 0-1 .448-1 1s.447 1 1 1h5v4h-9c-.553 0-1 .448-1 1s.447 1 1 1h10c.553 0 1-.448 1-1V5C62 4.448 61.553 4 61 4z"/><path fill="#8d6c9f" d="M42.331,31.893c-0.002-0.004-0.007-0.007-0.009-0.011c-1.504-2.744-3.323-5.478-5.19-8.276 c-4.458-6.679-9.067-13.585-10.088-21.731C26.981,1.375,26.556,1,26.052,1s-0.93,0.375-0.992,0.875 c-1.023,8.145-5.634,15.05-10.091,21.728c-4.562,6.834-8.872,13.29-8.872,20.445C6.097,55.05,15.047,64,26.048,64 C37.05,64,46,55.05,46,44.048c0-4.217-1.502-8.19-3.665-12.142C42.333,31.902,42.333,31.897,42.331,31.893z M16.632,24.713 c3.712-5.56,7.525-11.272,9.419-17.814c1.893,6.542,5.706,12.257,9.417,17.817c1.642,2.46,3.25,4.869,4.619,7.264l-0.41,0.224 c-4.012,2.197-9.012,1.898-12.735-0.762l-1.255-0.897c-3.336-2.382-7.538-3.151-11.45-2.203 C15.01,27.143,15.817,25.935,16.632,24.713z M26.048,62c-9.898,0-17.951-8.053-17.951-17.952c0-4.426,1.896-8.698,4.479-13.032 c0.003-0.001,0.006-0.001,0.009-0.002c3.889-1.766,8.465-1.323,11.94,1.16l1.255,0.896c2.409,1.721,5.274,2.595,8.149,2.595 c2.309,0,4.623-0.564,6.708-1.706l0.405-0.221C42.812,37.15,44,40.551,44,44.048C44,53.947,35.946,62,26.048,62z"/></svg>