<?xml version="1.0" encoding="UTF-8"?>
<svg xmlns="http://www.w3.org/2000/svg" viewBox="0 0 50 50" width="50px" height="50px">
<g id="surface27962112">
<path style=" stroke:none;fill-rule:nonzero;fill:rgb(100%,100%,100%);fill-opacity:1;" d="M 7 4 C 5.355469 4 4 5.355469 4 7 L 4 43 C 4 44.644531 5.355469 46 7 46 L 43 46 C 44.644531 46 46 44.644531 46 43 L 46 13.199219 C 46 12.933594 45.894531 12.679688 45.707031 12.492188 L 37.507812 4.292969 C 37.320312 4.105469 37.066406 4 36.800781 4 Z M 7 6 L 12 6 L 12 18 C 12 19.644531 13.355469 21 15 21 L 34 21 C 35.644531 21 37 19.644531 37 18 L 37 6.613281 L 44 13.613281 L 44 43 C 44 43.554688 43.554688 44 43 44 L 38 44 L 38 29 C 38 27.355469 36.644531 26 35 26 L 15 26 C 13.355469 26 12 27.355469 12 29 L 12 44 L 7 44 C 6.445312 44 6 43.554688 6 43 L 6 7 C 6 6.445312 6.445312 6 7 6 Z M 14 6 L 35 6 L 35 18 C 35 18.554688 34.554688 19 34 19 L 15 19 C 14.445312 19 14 18.554688 14 18 Z M 29 8 C 28.449219 8 28 8.449219 28 9 L 28 16 C 28 16.550781 28.449219 17 29 17 L 32 17 C 32.550781 17 33 16.550781 33 16 L 33 9 C 33 8.449219 32.550781 8 32 8 Z M 30 10 L 31 10 L 31 15 L 30 15 Z M 15 28 L 35 28 C 35.554688 28 36 28.445312 36 29 L 36 44 L 14 44 L 14 29 C 14 28.445312 14.445312 28 15 28 Z M 8 40 L 8 42 L 10 42 L 10 40 Z M 40 40 L 40 42 L 42 42 L 42 40 Z M 40 40 "/>
</g>
</svg>
