<svg xmlns="http://www.w3.org/2000/svg"  viewBox="0 0 64 64" width="50px" height="50px"><path fill="#ed7899" d="M45.001,50c0,7.68-6.66,13.8-14.51,12.91c-5.84-0.65-10.6-5.31-11.37-11.14 c-0.66-4.98,1.51-9.5,5.12-12.19c0.49-0.36,0.76-0.95,0.76-1.56V8c0-3.87,3.13-7,7-7h0.22c3.83,0.12,6.78,3.46,6.78,7.29v29.72 c0,0.61,0.26,1.2,0.75,1.57C42.931,41.95,45.001,45.73,45.001,50z"/><path fill="#e0678f" d="M25.001,19h6.961v19.962h-6.961V19z"/><path fill="#85cbf8" d="M39.001,8.29v10.65h-14V8c0-3.86,3.11-6.98,6.96-7h0.26C36.051,1.12,39.001,4.46,39.001,8.29z"/><path fill="#7bbeeb" d="M31.961,8.829V19.96h-6.96V9c0-0.214,0.01-0.427,0.028-0.636C25.417,4.04,31.961,4.488,31.961,8.829 z"/><path fill="#ef8eb1" d="M32,64c-1.339,0-2.665-0.189-3.94-0.563c-1.59-0.466-2.502-2.132-2.036-3.722 c0.465-1.589,2.128-2.5,3.722-2.037C30.473,57.892,31.231,58,32,58c4.411,0,8-3.589,8-8c0-0.737-0.1-1.467-0.297-2.17 c-0.447-1.595,0.483-3.251,2.079-3.698c1.59-0.444,3.251,0.483,3.698,2.079C45.825,47.44,46,48.715,46,50C46,57.72,39.72,64,32,64z"/><path fill="#8d6c9f" d="M40.352,38.776c-0.22-0.164-0.351-0.45-0.351-0.766V8.294c0-4.442-3.479-8.162-7.754-8.291 c-2.189-0.049-4.25,0.735-5.816,2.255c-1.567,1.52-2.43,3.559-2.43,5.742v30.016c0,0.312-0.132,0.598-0.354,0.763 c-4.137,3.082-6.2,7.989-5.52,13.125c0.828,6.248,5.979,11.297,12.248,12.005c0.532,0.06,1.063,0.089,1.592,0.089 c3.442,0,6.784-1.255,9.357-3.554c2.972-2.655,4.677-6.462,4.677-10.444C46.001,45.541,43.942,41.45,40.352,38.776z M26.001,14.962 h2.961c0.552,0,1-0.447,1-1S29.515,13,28.962,13h-2.961V9.962h4.961c0.552,0,1-0.447,1-1S31.515,8,30.962,8h-4.96 c0.01-1.622,0.654-3.175,1.82-4.307C28.953,2.597,30.43,2,32,2c0.062,0,0.125,0.001,0.187,0.003 c3.206,0.096,5.814,2.918,5.814,6.291v9.714C37.987,18.007,37.976,18,37.962,18H26.001V14.962z M39.993,58.952 c-2.583,2.307-5.917,3.369-9.393,2.968c-5.37-0.605-9.781-4.929-10.49-10.278c-0.583-4.408,1.186-8.617,4.732-11.26 c0.164-0.122,0.308-0.266,0.44-0.42h5.681c0.552,0,1-0.447,1-1S31.515,38,30.962,38h-4.961v-3.038h2.961c0.552,0,1-0.447,1-1 S29.515,33,28.962,33h-2.961v-3.038h4.961c0.552,0,1-0.447,1-1S31.515,28,30.962,28h-4.961v-3.038h2.961c0.552,0,1-0.447,1-1 S29.515,23,28.962,23h-2.961v-3.038h11.961c0.014,0,0.025-0.007,0.039-0.008V38.01c0,0.945,0.432,1.831,1.156,2.37 c3.078,2.293,4.844,5.799,4.844,9.62C44.001,53.413,42.54,56.676,39.993,58.952z"/><path fill="#8d6c9f" d="M30.178,59.182c-0.095,0-0.191-0.014-0.287-0.042c-0.528-0.158-0.829-0.715-0.671-1.245l0.573-1.916 c0.158-0.529,0.714-0.831,1.245-0.671c0.528,0.158,0.829,0.715,0.671,1.245l-0.573,1.916 C31.006,58.902,30.608,59.182,30.178,59.182z"/><path fill="#8d6c9f" d="M35.523,58.915c-0.393,0-0.766-0.233-0.925-0.619l-0.763-1.849c-0.21-0.511,0.033-1.095,0.543-1.306 c0.513-0.21,1.097,0.033,1.307,0.543l0.763,1.849c0.21,0.511-0.033,1.095-0.543,1.306C35.78,58.89,35.65,58.915,35.523,58.915z"/><path fill="#8d6c9f" d="M39.502,55.332c-0.161,0-0.324-0.039-0.476-0.121l-1.759-0.953c-0.485-0.263-0.666-0.87-0.402-1.355 c0.263-0.486,0.87-0.666,1.355-0.403l1.759,0.953c0.485,0.263,0.666,0.87,0.402,1.355C40.201,55.143,39.857,55.332,39.502,55.332z"/><path fill="#8d6c9f" d="M38.36,50.412c-0.472,0-0.892-0.335-0.981-0.815c-0.103-0.543,0.255-1.065,0.798-1.167l1.966-0.369 c0.542-0.102,1.065,0.255,1.167,0.798c0.103,0.543-0.255,1.065-0.798,1.167l-1.966,0.369C38.483,50.407,38.422,50.412,38.36,50.412 z"/></svg>