<svg xmlns="http://www.w3.org/2000/svg"  viewBox="0 0 64 64" width="50px" height="50px"><path fill="#e3f2ff" d="M31.411,60c-2.797,0-5.414-1.076-7.365-2.96c-0.94-0.908-0.806-2.451,0.297-3.152l0.003-0.002 c0.77-0.49,1.785-0.407,2.436,0.233C28.001,55.316,29.648,56,31.411,56c1.81,0,3.497-0.709,4.75-1.996 c1.23-1.262,1.882-2.923,1.836-4.677C37.907,45.839,34.773,43,31.013,43H5c-1.105,0-2-0.895-2-2v0c0-1.105,0.895-2,2-2h26.013 c5.91,0,10.837,4.586,10.984,10.224c0.073,2.842-0.981,5.531-2.971,7.572C37.013,58.862,34.308,60,31.411,60z M47.114,34H5 c-1.105,0-2-0.895-2-2v0c0-1.105,0.895-2,2-2h42.114c4.706,0,8.602-3.501,8.87-7.972c0.143-2.38-0.673-4.64-2.297-6.363 C52.069,13.946,49.88,13,47.524,13c-2.684,0-5.242,1.653-6.837,3.598c-0.615,0.751-1.669,0.965-2.518,0.495l-0.004-0.002 c-1.084-0.599-1.382-2.04-0.601-3.001C40.062,11.015,43.893,9,47.524,9c3.42,0,6.728,1.43,9.075,3.922 c2.388,2.535,3.587,5.854,3.378,9.347C59.583,28.847,53.933,34,47.114,34z M17.932,25H5c-1.105,0-2-0.895-2-2v0 c0-1.105,0.895-2,2-2h12.932c3.805,0,6.975-2.839,7.066-6.328c0.046-1.738-0.604-3.39-1.83-4.647C21.896,8.719,20.179,8,18.333,8 c-1.789,0-3.461,0.689-4.695,1.893c-0.653,0.637-1.668,0.714-2.436,0.221L11.2,10.113c-1.1-0.706-1.228-2.249-0.284-3.153 C12.881,5.076,15.517,4,18.333,4c2.934,0,5.669,1.148,7.7,3.233c1.985,2.037,3.038,4.717,2.964,7.544 C28.849,20.414,23.885,25,17.932,25z"/><path fill="#8d6c9f" d="M31.411,61c-3.033,0-5.896-1.151-8.06-3.24c-0.676-0.652-1.01-1.56-0.916-2.49 c0.092-0.918,0.592-1.729,1.371-2.226l0.118-0.07c1.162-0.673,2.607-0.501,3.558,0.432C28.53,54.434,29.925,55,31.411,55 c1.537,0,2.97-0.602,4.034-1.694c1.04-1.066,1.591-2.47,1.553-3.952C36.921,46.401,34.236,44,31.013,44H5c-1.654,0-3-1.346-3-3 s1.346-3,3-3h26.013c6.447,0,11.823,5.023,11.983,11.197c0.081,3.115-1.075,6.062-3.254,8.297C37.54,59.755,34.581,61,31.411,61z M24.846,54.754c-0.325,0.225-0.403,0.543-0.421,0.716c-0.032,0.316,0.083,0.627,0.315,0.851c1.79,1.729,4.158,2.68,6.67,2.68 c2.625,0,5.076-1.03,6.899-2.902c1.799-1.846,2.753-4.277,2.688-6.849C40.864,44.149,36.385,40,31.013,40H5c-0.551,0-1,0.448-1,1 s0.449,1,1,1h26.013c4.298,0,7.88,3.275,7.984,7.301c0.053,2.027-0.7,3.945-2.12,5.401C35.434,56.184,33.492,57,31.411,57 c-2.013,0-3.906-0.77-5.33-2.167c-0.31-0.305-0.812-0.348-1.198-0.103L24.846,54.754z M47.114,35H5c-1.654,0-3-1.346-3-3 s1.346-3,3-3h42.114c4.178,0,7.635-3.089,7.872-7.031c0.126-2.102-0.594-4.097-2.027-5.618C51.532,14.835,49.602,14,47.524,14 c-2.516,0-4.782,1.67-6.063,3.232c-0.923,1.125-2.51,1.436-3.775,0.736l-0.07-0.04c-0.747-0.438-1.268-1.172-1.435-2.026 c-0.169-0.869,0.052-1.759,0.606-2.442C39.523,10.092,43.638,8,47.524,8c3.694,0,7.267,1.544,9.803,4.236 c2.578,2.737,3.874,6.321,3.648,10.092C60.549,29.434,54.46,35,47.114,35z M5,31c-0.551,0-1,0.448-1,1s0.449,1,1,1h42.114 c6.29,0,11.501-4.74,11.865-10.791c0.192-3.215-0.912-6.27-3.108-8.602C53.711,11.314,50.669,10,47.524,10 c-3.249,0-6.854,1.853-9.185,4.721c-0.246,0.304-0.228,0.631-0.195,0.8c0.058,0.296,0.242,0.55,0.504,0.695l0.036,0.02 c0.415,0.21,0.928,0.099,1.23-0.271C41.485,14.048,44.31,12,47.524,12c2.635,0,5.082,1.059,6.891,2.979 c1.815,1.927,2.727,4.451,2.567,7.108C56.683,27.085,52.349,31,47.114,31H5z M17.932,26H5c-1.654,0-3-1.346-3-3s1.346-3,3-3 h12.932c3.268,0,5.989-2.402,6.066-5.354c0.039-1.467-0.511-2.86-1.547-3.923C21.37,9.611,19.907,9,18.333,9 c-1.514,0-2.933,0.571-3.997,1.608c-0.984,0.961-2.494,1.105-3.673,0.348c-0.779-0.499-1.276-1.312-1.365-2.229 c-0.091-0.931,0.247-1.839,0.926-2.489C12.402,4.149,15.283,3,18.333,3c3.207,0,6.195,1.256,8.416,3.536 c2.175,2.231,3.328,5.167,3.247,8.268C29.834,20.978,24.422,26,17.932,26z M5,22c-0.551,0-1,0.448-1,1s0.449,1,1,1h12.932 c5.416,0,9.932-4.149,10.065-9.249c0.066-2.556-0.885-4.978-2.681-6.819C23.475,6.041,20.995,5,18.333,5 c-2.532,0-4.921,0.952-6.726,2.681c-0.233,0.225-0.35,0.535-0.319,0.853c0.017,0.179,0.099,0.512,0.451,0.737 c0.387,0.248,0.891,0.208,1.201-0.094C14.379,7.773,16.294,7,18.333,7c2.118,0,4.09,0.826,5.551,2.327 c1.416,1.452,2.167,3.36,2.113,5.371C25.892,18.725,22.273,22,17.932,22H5z"/><path fill="#8d6c9f" d="M47.204,58.217c-0.149,0-0.3-0.033-0.442-0.104l-1.792-0.887 c-0.495-0.245-0.698-0.845-0.453-1.34c0.244-0.495,0.844-0.698,1.34-0.453l1.792,0.887c0.495,0.245,0.698,0.845,0.453,1.34 C47.927,58.013,47.572,58.217,47.204,58.217z"/><path fill="#8d6c9f" d="M48.767,53.361c-0.054,0-0.108-0.004-0.163-0.014l-1.974-0.324 c-0.545-0.089-0.914-0.604-0.825-1.148s0.601-0.924,1.149-0.824l1.974,0.324c0.545,0.089,0.914,0.604,0.825,1.148 C49.672,53.014,49.248,53.361,48.767,53.361z"/><path fill="#8d6c9f" d="M46.863,48.526c-0.494,0-0.923-0.365-0.99-0.868c-0.073-0.548,0.312-1.05,0.859-1.123 l1.982-0.264c0.55-0.07,1.05,0.312,1.123,0.859s-0.312,1.05-0.859,1.123l-1.982,0.264 C46.951,48.523,46.907,48.526,46.863,48.526z"/><path fill="#8d6c9f" d="M45.6,44.206c-0.377,0-0.738-0.214-0.907-0.578c-0.233-0.501-0.016-1.096,0.485-1.328 l1.813-0.844c0.499-0.232,1.095-0.017,1.329,0.484c0.233,0.501,0.016,1.096-0.485,1.328l-1.813,0.844 C45.885,44.176,45.742,44.206,45.6,44.206z"/><path fill="#8d6c9f" d="M43.118,40.434c-0.276,0-0.55-0.113-0.748-0.336c-0.367-0.413-0.33-1.045,0.083-1.411 l1.495-1.328c0.413-0.368,1.044-0.33,1.412,0.083c0.367,0.413,0.33,1.045-0.083,1.411l-1.495,1.328 C43.591,40.351,43.354,40.434,43.118,40.434z"/></svg>